<svg id="레이어_1" data-name="레이어 1" xmlns="http://www.w3.org/2000/svg" xmlns:xlink="http://www.w3.org/1999/xlink" viewBox="0 0 24 24.1"><defs><style>.cls-1{fill:none;}.cls-2,.cls-3,.cls-4{stroke:#493e1b;stroke-miterlimit:10;stroke-width:0.1px;}.cls-2{fill:url(#무제_그라디언트_30);}.cls-3{fill:url(#무제_그라디언트_30-2);}.cls-4{fill:url(#무제_그라디언트_30-3);}</style><linearGradient id="무제_그라디언트_30" x1="-45.04" y1="296.91" x2="-45.04" y2="272.91" gradientUnits="userSpaceOnUse"><stop offset="0" stop-color="#f5c51d"/><stop offset="0.5" stop-color="#f39518"/><stop offset="1" stop-color="#e83b18"/></linearGradient><linearGradient id="무제_그라디언트_30-2" x1="9.29" y1="0.05" x2="9.29" y2="0.05" xlink:href="#무제_그라디언트_30"/><linearGradient id="무제_그라디언트_30-3" x1="14.73" y1="0.05" x2="14.73" y2="0.05" xlink:href="#무제_그라디언트_30"/></defs><rect class="cls-1" y="0.05" width="24" height="24"/><path class="cls-2" d="M-45,291.68h-.36l6.85-3.3a.54.54,0,0,0,.29-.51v-2.42a.46.46,0,0,0-.46-.47H-45l6.48-3.12a.54.54,0,0,0,.29-.51v-2.47h0c0-2.42-.21-3.53-1.45-5a3.92,3.92,0,0,0-2.6-1,2.59,2.59,0,0,0-2.4,1.67l-.32.86h0v0h0v0h0l-.31-.86a2.6,2.6,0,0,0-2.4-1.67,4,4,0,0,0-2.61,1c-1.24,1.44-1.44,2.55-1.45,5h0v2.37a.48.48,0,0,0,.46.48H-45l-6.49,3.11a.57.57,0,0,0-.29.52v2.4a.48.48,0,0,0,.46.48H-45l-6.51,3.12a.55.55,0,0,0-.29.51v.68c-1.43.46-2.3,1.07-2.3,1.74,0,1.44,4.06,2.61,9.07,2.61H-44v-2l4.79,1.38c2-.48,3.22-1.2,3.22-2C-36,292.86-40,291.68-45,291.68Z" transform="translate(57.04 -272.86)"/><polygon class="cls-3" points="9.28 0.05 9.29 0.05 9.29 0.05 9.28 0.05"/><polygon class="cls-4" points="14.72 0.05 14.73 0.05 14.73 0.05 14.72 0.05"/></svg>