<svg id="레이어_1" data-name="레이어 1" xmlns="http://www.w3.org/2000/svg" viewBox="0 0 24 24.05"><defs><style>.cls-1{fill:none;}.cls-2{fill:#3f3f40;}.cls-3{fill:#484747;}.cls-4{fill:#da2b27;}.cls-4,.cls-5,.cls-6,.cls-8{stroke:#493e1b;stroke-miterlimit:10;stroke-width:0.1px;}.cls-5{fill:#f5c51d;}.cls-6,.cls-9{fill:#fff;}.cls-7{fill:#381f0b;}.cls-8{fill:#e6312c;}</style></defs><rect class="cls-1" y="0.05" width="24" height="24"/><path class="cls-2" d="M-16,264.67h-.36l6.71-3.22a.54.54,0,0,0,.28-.5v-2.37a.46.46,0,0,0-.45-.46H-16l6.35-3.05a.54.54,0,0,0,.28-.5v-2.41h0c0-2.37-.2-3.45-1.42-4.87a3.79,3.79,0,0,0-2.54-1,2.52,2.52,0,0,0-2.35,1.63l-.31.84h0v0h0v0h0l-.3-.84a2.54,2.54,0,0,0-2.35-1.63,3.82,3.82,0,0,0-2.55,1c-1.21,1.42-1.42,2.5-1.42,4.87h0v2.32a.46.46,0,0,0,.45.46H-16L-22.3,258a.54.54,0,0,0-.28.5v2.36a.46.46,0,0,0,.45.46h6.19l-6.36,3.05a.56.56,0,0,0-.28.51v.66c-1.4.45-2.26,1-2.26,1.7,0,1.41,4,2.56,8.88,2.56l1,0v-1.94l4.69,1.35c1.93-.47,3.15-1.17,3.15-1.95C-7.09,265.82-11.06,264.67-16,264.67Z" transform="translate(28.46 -245.74)"/><polygon class="cls-2" points="9.84 0.57 9.85 0.57 9.86 0.57 9.84 0.57"/><polygon class="cls-2" points="15.16 0.57 15.17 0.57 15.18 0.57 15.16 0.57"/><path class="cls-3" d="M-19.78,254.83V256a2.32,2.32,0,0,0,2,2.54,2.32,2.32,0,0,0,2-2.54v-1.19Z" transform="translate(28.46 -245.74)"/><path class="cls-4" d="M-15.93,266.89l4.69,1.33c1.93-.47,3.15-1.15,3.15-1.92,0-1.39-4-2.51-8.87-2.51s-8.88,1.12-8.88,2.51,4,2.51,8.88,2.51l1,0Z" transform="translate(28.46 -245.74)"/><path class="cls-5" d="M-10.78,251.12H-23.14a.46.46,0,0,0-.45.46v2.22a.46.46,0,0,0,.45.45H-17l-6.34,3a.56.56,0,0,0-.29.5V260a.45.45,0,0,0,.45.45h6.2l-6.36,3a.54.54,0,0,0-.29.49v2a.47.47,0,0,0,.62.49l12.36-5.82a.53.53,0,0,0,.28-.49v-2.32a.45.45,0,0,0-.45-.45H-17l6.35-3a.54.54,0,0,0,.28-.49v-2.31A.46.46,0,0,0-10.78,251.12Z" transform="translate(28.46 -245.74)"/><polygon class="cls-6" points="8.84 0.05 8.85 0.05 8.85 0.05 8.84 0.05"/><path class="cls-6" d="M-17.27,247.38a2.51,2.51,0,0,0-2.35-1.59,3.82,3.82,0,0,0-2.54,1c-1.22,1.38-1.42,2.44-1.42,4.77h13.25c0-2.33-.21-3.39-1.42-4.77a3.85,3.85,0,0,0-2.55-1,2.53,2.53,0,0,0-2.35,1.59l-.3.83h0v0h0v0h0Z" transform="translate(28.46 -245.74)"/><polygon class="cls-6" points="14.16 0.05 14.17 0.05 14.17 0.05 14.16 0.05"/><ellipse class="cls-7" cx="8.61" cy="3.2" rx="1.16" ry="1.39"/><ellipse class="cls-7" cx="14.17" cy="3.2" rx="1.16" ry="1.39"/><path class="cls-8" d="M-20.85,254.24v1.19a2.31,2.31,0,0,0,2,2.53,2.31,2.31,0,0,0,2-2.53v-1.19Z" transform="translate(28.46 -245.74)"/><circle class="cls-9" cx="8.63" cy="3.2" r="0.45"/><circle class="cls-9" cx="14.18" cy="3.2" r="0.45"/></svg>