<svg id="레이어_1" data-name="레이어 1" xmlns="http://www.w3.org/2000/svg" viewBox="0 0 24 24.1"><defs><style>.cls-1{fill:none;}.cls-2{fill:#f39518;stroke:#4a3e1b;stroke-miterlimit:10;stroke-width:0.1px;}</style></defs><rect class="cls-1" y="0.05" width="24" height="24"/><path class="cls-2" d="M-16.46,291.68h-.37l6.86-3.3a.54.54,0,0,0,.29-.51v-2.42a.47.47,0,0,0-.46-.47h-6.32l6.49-3.12a.54.54,0,0,0,.29-.51v-2.47h0c0-2.42-.21-3.53-1.45-5a3.94,3.94,0,0,0-2.6-1,2.6,2.6,0,0,0-2.41,1.67l-.31.86h0v0h0v0h0l-.31-.86a2.6,2.6,0,0,0-2.41-1.67,3.94,3.94,0,0,0-2.6,1c-1.24,1.44-1.44,2.55-1.45,5h0v2.37a.47.47,0,0,0,.46.48h6.31l-6.48,3.11a.57.57,0,0,0-.29.52v2.4a.47.47,0,0,0,.46.48h6.33l-6.5,3.12a.55.55,0,0,0-.29.51v.68c-1.44.46-2.31,1.07-2.31,1.74,0,1.44,4.07,2.61,9.08,2.61h1.05v-2l4.79,1.38c2-.48,3.23-1.2,3.23-2C-7.39,292.86-11.45,291.68-16.46,291.68Z" transform="translate(28.46 -272.86)"/><polygon class="cls-2" points="9.28 0.05 9.29 0.05 9.29 0.05 9.28 0.05"/><polygon class="cls-2" points="14.72 0.05 14.73 0.05 14.73 0.05 14.72 0.05"/></svg>